# xmcd CD database file
#
# Track frame offsets:
#	150
#	15489
#	35197
#	49827
#	75525
#	95487
#	110453
#	133205
#	153913
#	170558
#	192631
#	214423
#	234331
#
# Disc length: 3357 seconds
#
# Revision: 0
# Processed by: cddbd v1.5.2PL0 Copyright (c) Steve Scherf et al.
# Submitted via: CDex 1.40Beta9
#
DISCID=b30d1b0d
DTITLE=Scotland Barr and the Slow Drags - Legionnaires Disease
DYEAR=2006
DGENRE=Country
TTITLE0=Legionnaires Disease
TTITLE1=Bruised Tattoo
TTITLE2=Sun Years
TTITLE3=When You Cried
TTITLE4=Saving Grace
TTITLE5=Always Cherry
TTITLE6=A Woman's Way
TTITLE7=The Distance
TTITLE8=1000 Roads
TTITLE9=Count on Me
TTITLE10=Spanish Dust
TTITLE11=5 Years in Nashville
TTITLE12=Delta Dive
EXTD=YEAR: 2006 ID3G: 2
EXTT0=
EXTT1=
EXTT2=
EXTT3=
EXTT4=
EXTT5=
EXTT6=
EXTT7=
EXTT8=
EXTT9=
EXTT10=
EXTT11=
EXTT12=
PLAYORDER=
